{"accessors" : [{"bufferView" : 0, "byteOffset" : 0, "componentType" : 5123, "count" : 3306, "type" : "SCALAR", "max" : [2923], "min" : [0]}, {"bufferView" : 1, "byteOffset" : 0, "componentType" : 5126, "count" : 2924, "type" : "VEC3", "max" : [0.06889999657869339, 1.1497999429702759, 0.06889999657869339], "min" : [-0.06889999657869339, 0, -0.06889999657869339], "name" : "POSITION"}, {"bufferView" : 1, "byteOffset" : 12, "componentType" : 5126, "count" : 2924, "type" : "VEC3", "max" : [1.0000042915344238, 1.0000042915344238, 1.0000042915344238], "min" : [-1.0000042915344238, -1.0000042915344238, -1.0000042915344238], "name" : "NORMAL"}, {"bufferView" : 1, "byteOffset" : 24, "componentType" : 5126, "count" : 2924, "type" : "VEC2", "max" : [0, -0], "min" : [0, -0], "name" : "TEXCOORD_0"}], "asset" : {"generator" : "Aspose.3D 23.9.0", "version" : "2.0"}, "buffers" : [{"uri" : "data:application/octet-stream;base64,", "byteLength" : 112412}], "bufferViews" : [{"buffer" : 0, "byteOffset" : 0, "byteLength" : 6612, "target" : 34963}, {"buffer" : 0, "byteOffset" : 6616, "byteLength" : 105792, "byteStride" : 32, "target" : 34962}], "materials" : [{"pbrMetallicRoughness" : {"baseColorFactor" : [1, 1, 1, 1], "metallicFactor" : 1, "roughnessFactor" : 1}, "emissiveFactor" : [0, 0, 0], "alphaMode" : "OPAQUE", "doubleSided" : false}], "meshes" : [{"primitives" : [{"attributes" : {"POSITION" : 1, "NORMAL" : 2, "TEXCOORD_0" : 3}, "indices" : 0, "material" : 0, "mode" : 4}]}], "nodes" : [{"mesh" : 0, "name" : "Layer0_001"}], "scene" : 0, "scenes" : [{"nodes" : [0]}]}