{"accessors" : [{"bufferView" : 0, "byteOffset" : 0, "componentType" : 5123, "count" : 3306, "type" : "SCALAR", "max" : [3021], "min" : [0]}, {"bufferView" : 1, "byteOffset" : 0, "componentType" : 5126, "count" : 3022, "type" : "VEC3", "max" : [0.06889999657869339, 1.1497999429702759, 0.06889999657869339], "min" : [-0.06889999657869339, 0, -0.06889999657869339], "name" : "POSITION"}, {"bufferView" : 1, "byteOffset" : 12, "componentType" : 5126, "count" : 3022, "type" : "VEC2", "max" : [0, -1], "min" : [0, -1], "name" : "TEXCOORD_0"}, {"bufferView" : 1, "byteOffset" : 20, "componentType" : 5126, "count" : 3022, "type" : "VEC3", "max" : [1.0000044107437134, 1.0000044107437134, 1.0000044107437134], "min" : [-1.0000044107437134, -1.0000044107437134, -1.0000044107437134], "name" : "NORMAL"}], "asset" : {"generator" : "Aspose.3D 23.9.0", "version" : "2.0"}, "buffers" : [{"uri" : "data:application/octet-stream;base64,", "byteLength" : 112412}], "bufferViews" : [{"buffer" : 0, "byteOffset" : 0, "byteLength" : 6612, "target" : 34963}, {"buffer" : 0, "byteOffset" : 6616, "byteLength" : 105792, "byteStride" : 32, "target" : 34962}], "meshes" : [{"primitives" : [{"attributes" : {"POSITION" : 1, "TEXCOORD_0" : 2, "NORMAL" : 3}, "indices" : 0, "mode" : 4}], "name" : ""}], "nodes" : [{"mesh" : 0, "name" : "Layer0_001"}], "scene" : 0, "scenes" : [{"nodes" : [0]}]}